<svg width="156" height="72" viewBox="0 0 156 72" fill="none" xmlns="http://www.w3.org/2000/svg">
<circle cx="36.5" cy="36" r="35.5" stroke="#282828"/>
<path d="M30.4299 38.43L36.4999 44.5L42.5699 38.43" stroke="#282828" stroke-width="1.5" stroke-miterlimit="10" stroke-linecap="round" stroke-linejoin="round"/>
<path d="M36.5 27.5L36.5 44.33" stroke="#282828" stroke-width="1.5" stroke-miterlimit="10" stroke-linecap="round" stroke-linejoin="round"/>
<rect width="94" height="29" transform="translate(61.5 21)" fill="#FFFCEE"/>
<path d="M69.0335 29.8294C69.5668 29.8294 69.9722 29.8934 70.2495 30.0214C70.5268 30.1387 70.7722 30.272 70.9855 30.4214C71.1135 30.496 71.2148 30.5547 71.2895 30.5974C71.3748 30.6294 71.4548 30.6454 71.5295 30.6454C71.6362 30.6454 71.7108 30.5867 71.7535 30.4694C71.8068 30.352 71.8495 30.176 71.8815 29.9414H72.2495C72.2388 30.1227 72.2228 30.3414 72.2015 30.5974C72.1908 30.8427 72.1802 31.1734 72.1695 31.5894C72.1695 31.9947 72.1695 32.5334 72.1695 33.2054H71.8015C71.7695 32.6934 71.6575 32.2027 71.4655 31.7334C71.2735 31.264 70.9908 30.88 70.6175 30.5814C70.2548 30.2827 69.7748 30.1334 69.1775 30.1334C68.6122 30.1334 68.1428 30.304 67.7695 30.6454C67.4068 30.9867 67.2255 31.4347 67.2255 31.9894C67.2255 32.4694 67.3482 32.8747 67.5935 33.2054C67.8388 33.5254 68.1642 33.8187 68.5695 34.0854C68.9855 34.3414 69.4335 34.6187 69.9135 34.9174C70.4682 35.2587 70.9588 35.6 71.3855 35.9414C71.8228 36.272 72.1642 36.64 72.4095 37.0454C72.6655 37.4507 72.7935 37.9414 72.7935 38.5174C72.7935 39.2 72.6388 39.7654 72.3295 40.2134C72.0202 40.6614 71.6095 40.9974 71.0975 41.2214C70.5855 41.4454 70.0202 41.5574 69.4015 41.5574C68.8362 41.5574 68.3882 41.4934 68.0575 41.3654C67.7268 41.2374 67.4442 41.104 67.2095 40.9654C66.9748 40.816 66.7935 40.7414 66.6655 40.7414C66.5588 40.7414 66.4788 40.8 66.4255 40.9174C66.3828 41.0347 66.3455 41.2107 66.3135 41.4454H65.9455C65.9668 41.2214 65.9775 40.96 65.9775 40.6614C65.9882 40.352 65.9935 39.952 65.9935 39.4614C66.0042 38.9707 66.0095 38.352 66.0095 37.6054H66.3775C66.4202 38.2454 66.5375 38.8427 66.7295 39.3974C66.9322 39.952 67.2362 40.4 67.6415 40.7414C68.0575 41.072 68.6068 41.2374 69.2895 41.2374C69.6415 41.2374 69.9722 41.168 70.2815 41.0294C70.6015 40.88 70.8628 40.6507 71.0655 40.3414C71.2682 40.0214 71.3695 39.6107 71.3695 39.1094C71.3695 38.672 71.2628 38.2934 71.0495 37.9734C70.8468 37.6427 70.5588 37.3387 70.1855 37.0614C69.8122 36.7734 69.3748 36.48 68.8735 36.1814C68.3722 35.872 67.9028 35.5574 67.4655 35.2374C67.0282 34.9174 66.6762 34.5494 66.4095 34.1334C66.1535 33.7067 66.0255 33.1947 66.0255 32.5974C66.0255 31.968 66.1642 31.4507 66.4415 31.0454C66.7295 30.6294 67.1028 30.3254 67.5615 30.1334C68.0202 29.9307 68.5108 29.8294 69.0335 29.8294ZM78.0421 32.8694C78.3835 32.8694 78.7141 32.912 79.0341 32.9974C79.3541 33.0827 79.6421 33.2107 79.8981 33.3814C80.1435 33.5414 80.3301 33.728 80.4581 33.9414C80.5861 34.144 80.6501 34.368 80.6501 34.6134C80.6501 34.9014 80.5701 35.1254 80.4101 35.2854C80.2501 35.4347 80.0475 35.5094 79.8021 35.5094C79.5675 35.5094 79.3595 35.44 79.1781 35.3014C79.0075 35.1627 78.9221 34.9654 78.9221 34.7094C78.9221 34.464 78.9861 34.2667 79.1141 34.1174C79.2528 33.968 79.4128 33.872 79.5941 33.8294C79.4875 33.6374 79.2955 33.4774 79.0181 33.3494C78.7515 33.2214 78.4635 33.1574 78.1541 33.1574C77.8875 33.1574 77.6208 33.2214 77.3541 33.3494C77.0875 33.4774 76.8421 33.6907 76.6181 33.9894C76.3941 34.2774 76.2128 34.6774 76.0741 35.1894C75.9355 35.6907 75.8661 36.32 75.8661 37.0774C75.8661 38.016 75.9728 38.7627 76.1861 39.3174C76.3995 39.872 76.6768 40.272 77.0181 40.5174C77.3701 40.752 77.7541 40.8694 78.1701 40.8694C78.4475 40.8694 78.7301 40.816 79.0181 40.7094C79.3061 40.6027 79.5781 40.432 79.8341 40.1974C80.0901 39.952 80.3088 39.6267 80.4901 39.2214L80.7941 39.3334C80.6875 39.6747 80.5115 40.0214 80.2661 40.3734C80.0208 40.7147 79.7008 40.9974 79.3061 41.2214C78.9115 41.4454 78.4261 41.5574 77.8501 41.5574C77.1888 41.5574 76.5915 41.3867 76.0581 41.0454C75.5248 40.704 75.0981 40.2187 74.7781 39.5894C74.4688 38.9494 74.3141 38.192 74.3141 37.3174C74.3141 36.4427 74.4688 35.6747 74.7781 35.0134C75.0981 34.3414 75.5408 33.8187 76.1061 33.4454C76.6715 33.0614 77.3168 32.8694 78.0421 32.8694ZM86.7994 32.8694C87.0874 32.8694 87.338 32.928 87.5514 33.0454C87.7754 33.1627 87.946 33.3174 88.0634 33.5094C88.1914 33.6907 88.2554 33.8987 88.2554 34.1334C88.2554 34.4 88.17 34.6347 87.9994 34.8374C87.8394 35.04 87.6207 35.1414 87.3434 35.1414C87.1194 35.1414 86.922 35.072 86.7514 34.9334C86.5807 34.784 86.4954 34.576 86.4954 34.3094C86.4954 34.1067 86.5487 33.936 86.6554 33.7974C86.7727 33.648 86.9007 33.5307 87.0394 33.4454C86.9647 33.3387 86.8527 33.2854 86.7034 33.2854C86.3727 33.2854 86.0687 33.3867 85.7914 33.5894C85.514 33.7814 85.2794 34.032 85.0874 34.3414C84.8954 34.6507 84.746 34.9814 84.6394 35.3334C84.5327 35.6747 84.4794 35.9947 84.4794 36.2934V39.6854C84.4794 40.208 84.6287 40.56 84.9274 40.7414C85.2367 40.912 85.6527 40.9974 86.1754 40.9974V41.3334C85.93 41.3227 85.5834 41.312 85.1354 41.3014C84.6874 41.28 84.2127 41.2694 83.7114 41.2694C83.3487 41.2694 82.986 41.28 82.6234 41.3014C82.2714 41.312 82.0047 41.3227 81.8234 41.3334V40.9974C82.2607 40.9974 82.57 40.9174 82.7514 40.7574C82.9434 40.5974 83.0394 40.2934 83.0394 39.8454V34.8374C83.0394 34.3574 82.954 34.0054 82.7834 33.7814C82.6127 33.5467 82.2927 33.4294 81.8234 33.4294V33.0934C82.1647 33.1254 82.4954 33.1414 82.8154 33.1414C83.1247 33.1414 83.418 33.1254 83.6954 33.0934C83.9834 33.0507 84.2447 32.992 84.4794 32.9174V34.9174C84.5967 34.608 84.762 34.2987 84.9754 33.9894C85.1994 33.6694 85.466 33.4027 85.7754 33.1894C86.0847 32.976 86.426 32.8694 86.7994 32.8694ZM92.5559 32.8694C93.2385 32.8694 93.8519 33.0187 94.3959 33.3174C94.9399 33.616 95.3719 34.0854 95.6919 34.7254C96.0225 35.3654 96.1879 36.1974 96.1879 37.2214C96.1879 38.2454 96.0225 39.0774 95.6919 39.7174C95.3719 40.3467 94.9399 40.8107 94.3959 41.1094C93.8519 41.408 93.2385 41.5574 92.5559 41.5574C91.8839 41.5574 91.2705 41.408 90.7159 41.1094C90.1719 40.8107 89.7345 40.3467 89.4039 39.7174C89.0839 39.0774 88.9239 38.2454 88.9239 37.2214C88.9239 36.1974 89.0839 35.3654 89.4039 34.7254C89.7345 34.0854 90.1719 33.616 90.7159 33.3174C91.2705 33.0187 91.8839 32.8694 92.5559 32.8694ZM92.5559 33.1894C91.9479 33.1894 91.4465 33.504 91.0519 34.1334C90.6679 34.7627 90.4759 35.792 90.4759 37.2214C90.4759 38.6507 90.6679 39.68 91.0519 40.3094C91.4465 40.928 91.9479 41.2374 92.5559 41.2374C93.1639 41.2374 93.6599 40.928 94.0439 40.3094C94.4385 39.68 94.6359 38.6507 94.6359 37.2214C94.6359 35.792 94.4385 34.7627 94.0439 34.1334C93.6599 33.504 93.1639 33.1894 92.5559 33.1894ZM99.7893 28.7894V39.8454C99.7893 40.2934 99.8799 40.5974 100.061 40.7574C100.253 40.9174 100.568 40.9974 101.005 40.9974V41.3334C100.824 41.3227 100.547 41.312 100.173 41.3014C99.8106 41.28 99.4426 41.2694 99.0693 41.2694C98.7066 41.2694 98.3386 41.28 97.9653 41.3014C97.5919 41.312 97.3146 41.3227 97.1333 41.3334V40.9974C97.5706 40.9974 97.8799 40.9174 98.0613 40.7574C98.2533 40.5974 98.3493 40.2934 98.3493 39.8454V30.7094C98.3493 30.2294 98.2639 29.8774 98.0933 29.6534C97.9226 29.4187 97.6026 29.3014 97.1333 29.3014V28.9654C97.4746 28.9974 97.8053 29.0134 98.1253 29.0134C98.4346 29.0134 98.7279 28.9974 99.0053 28.9654C99.2933 28.9227 99.5546 28.864 99.7893 28.7894ZM104.367 28.7894V39.8454C104.367 40.2934 104.458 40.5974 104.639 40.7574C104.831 40.9174 105.146 40.9974 105.583 40.9974V41.3334C105.402 41.3227 105.125 41.312 104.751 41.3014C104.389 41.28 104.021 41.2694 103.647 41.2694C103.285 41.2694 102.917 41.28 102.543 41.3014C102.17 41.312 101.893 41.3227 101.711 41.3334V40.9974C102.149 40.9974 102.458 40.9174 102.639 40.7574C102.831 40.5974 102.927 40.2934 102.927 39.8454V30.7094C102.927 30.2294 102.842 29.8774 102.671 29.6534C102.501 29.4187 102.181 29.3014 101.711 29.3014V28.9654C102.053 28.9974 102.383 29.0134 102.703 29.0134C103.013 29.0134 103.306 28.9974 103.583 28.9654C103.871 28.9227 104.133 28.864 104.367 28.7894ZM114.962 30.0054C116.871 30.0054 118.29 30.4854 119.218 31.4454C120.146 32.3947 120.61 33.76 120.61 35.5414C120.61 36.704 120.381 37.7227 119.922 38.5974C119.474 39.4614 118.818 40.1334 117.954 40.6134C117.09 41.0934 116.045 41.3334 114.818 41.3334C114.658 41.3334 114.445 41.328 114.178 41.3174C113.911 41.3067 113.634 41.3014 113.346 41.3014C113.069 41.2907 112.813 41.2854 112.578 41.2854C112.205 41.2854 111.837 41.2907 111.474 41.3014C111.111 41.3014 110.818 41.312 110.594 41.3334V41.0134C110.957 40.992 111.229 40.9494 111.41 40.8854C111.602 40.8214 111.73 40.6934 111.794 40.5014C111.858 40.3094 111.89 40.0214 111.89 39.6374V31.7014C111.89 31.3067 111.858 31.0187 111.794 30.8374C111.73 30.6454 111.602 30.5174 111.41 30.4534C111.229 30.3787 110.957 30.336 110.594 30.3254V30.0054C110.818 30.016 111.111 30.032 111.474 30.0534C111.837 30.064 112.194 30.064 112.546 30.0534C112.919 30.0427 113.341 30.032 113.81 30.0214C114.279 30.0107 114.663 30.0054 114.962 30.0054ZM114.562 30.2934C114.071 30.2934 113.751 30.384 113.602 30.5654C113.453 30.7467 113.378 31.1147 113.378 31.6694V39.6694C113.378 40.224 113.453 40.592 113.602 40.7734C113.762 40.9547 114.087 41.0454 114.578 41.0454C115.741 41.0454 116.642 40.8374 117.282 40.4214C117.922 39.9947 118.37 39.376 118.626 38.5654C118.882 37.7547 119.01 36.768 119.01 35.6054C119.01 34.4107 118.866 33.424 118.578 32.6454C118.301 31.856 117.837 31.2694 117.186 30.8854C116.546 30.4907 115.671 30.2934 114.562 30.2934ZM125.868 32.8694C126.551 32.8694 127.164 33.0187 127.708 33.3174C128.252 33.616 128.684 34.0854 129.004 34.7254C129.335 35.3654 129.5 36.1974 129.5 37.2214C129.5 38.2454 129.335 39.0774 129.004 39.7174C128.684 40.3467 128.252 40.8107 127.708 41.1094C127.164 41.408 126.551 41.5574 125.868 41.5574C125.196 41.5574 124.583 41.408 124.028 41.1094C123.484 40.8107 123.047 40.3467 122.716 39.7174C122.396 39.0774 122.236 38.2454 122.236 37.2214C122.236 36.1974 122.396 35.3654 122.716 34.7254C123.047 34.0854 123.484 33.616 124.028 33.3174C124.583 33.0187 125.196 32.8694 125.868 32.8694ZM125.868 33.1894C125.26 33.1894 124.759 33.504 124.364 34.1334C123.98 34.7627 123.788 35.792 123.788 37.2214C123.788 38.6507 123.98 39.68 124.364 40.3094C124.759 40.928 125.26 41.2374 125.868 41.2374C126.476 41.2374 126.972 40.928 127.356 40.3094C127.751 39.68 127.948 38.6507 127.948 37.2214C127.948 35.792 127.751 34.7627 127.356 34.1334C126.972 33.504 126.476 33.1894 125.868 33.1894ZM133.629 33.0934V33.4294C133.362 33.4294 133.127 33.4507 132.925 33.4934C132.722 33.5254 132.589 33.632 132.525 33.8134C132.461 33.9947 132.509 34.3147 132.669 34.7734L134.333 39.5414L134.221 39.5254L136.573 33.0294L136.893 33.1574L133.965 41.4134C133.922 41.4134 133.879 41.4134 133.837 41.4134C133.794 41.4134 133.746 41.4134 133.693 41.4134L131.069 34.3254C130.898 33.8987 130.727 33.6427 130.557 33.5574C130.397 33.472 130.258 33.4294 130.141 33.4294V33.0934C130.354 33.1254 130.573 33.152 130.797 33.1734C131.031 33.184 131.282 33.1894 131.549 33.1894C131.879 33.1894 132.226 33.1787 132.589 33.1574C132.962 33.136 133.309 33.1147 133.629 33.0934ZM142.413 33.0934V33.4134C142.21 33.4347 142.018 33.5254 141.837 33.6854C141.666 33.8347 141.511 34.1174 141.373 34.5334L139.053 41.4134C139.01 41.4134 138.967 41.4134 138.925 41.4134C138.882 41.4134 138.834 41.4134 138.781 41.4134L136.205 34.8694L136.573 33.0294C136.637 33.0294 136.695 33.0294 136.749 33.0294C136.813 33.0294 136.877 33.0294 136.941 33.0294L139.437 39.6374L139.309 39.7334L140.893 34.9174C141.01 34.5547 141.053 34.272 141.021 34.0694C140.999 33.856 140.893 33.7014 140.701 33.6054C140.519 33.4987 140.237 33.4347 139.853 33.4134V33.0934C140.045 33.104 140.21 33.1147 140.349 33.1254C140.487 33.1254 140.621 33.1307 140.749 33.1414C140.887 33.1414 141.037 33.1414 141.197 33.1414C141.442 33.1414 141.661 33.136 141.853 33.1254C142.055 33.1147 142.242 33.104 142.413 33.0934ZM148.293 32.8694C148.698 32.8694 149.034 32.9227 149.301 33.0294C149.578 33.136 149.808 33.2854 149.989 33.4774C150.192 33.6907 150.336 33.9574 150.421 34.2774C150.506 34.5974 150.549 35.0294 150.549 35.5734V39.8454C150.549 40.2934 150.64 40.5974 150.821 40.7574C151.013 40.9174 151.328 40.9974 151.765 40.9974V41.3334C151.584 41.3227 151.306 41.312 150.933 41.3014C150.56 41.28 150.197 41.2694 149.845 41.2694C149.493 41.2694 149.146 41.28 148.805 41.3014C148.474 41.312 148.224 41.3227 148.053 41.3334V40.9974C148.437 40.9974 148.709 40.9174 148.869 40.7574C149.029 40.5974 149.109 40.2934 149.109 39.8454V35.2214C149.109 34.8907 149.082 34.5867 149.029 34.3094C148.976 34.032 148.853 33.808 148.661 33.6374C148.48 33.4667 148.197 33.3814 147.813 33.3814C147.365 33.3814 146.97 33.5094 146.629 33.7654C146.298 34.0214 146.037 34.3734 145.845 34.8214C145.664 35.2587 145.573 35.7494 145.573 36.2934V39.8454C145.573 40.2934 145.653 40.5974 145.813 40.7574C145.973 40.9174 146.245 40.9974 146.629 40.9974V41.3334C146.458 41.3227 146.202 41.312 145.861 41.3014C145.53 41.28 145.189 41.2694 144.837 41.2694C144.485 41.2694 144.122 41.28 143.749 41.3014C143.376 41.312 143.098 41.3227 142.917 41.3334V40.9974C143.354 40.9974 143.664 40.9174 143.845 40.7574C144.037 40.5974 144.133 40.2934 144.133 39.8454V34.8374C144.133 34.3574 144.048 34.0054 143.877 33.7814C143.706 33.5467 143.386 33.4294 142.917 33.4294V33.0934C143.258 33.1254 143.589 33.1414 143.909 33.1414C144.218 33.1414 144.512 33.1254 144.789 33.0934C145.077 33.0507 145.338 32.992 145.573 32.9174V34.8054C145.85 34.08 146.234 33.5787 146.725 33.3014C147.226 33.0134 147.749 32.8694 148.293 32.8694Z" fill="#282828"/>
</svg>
